<svg version="1.0" xmlns="http://www.w3.org/2000/svg"
 width="62.000000pt" height="59.000000pt" viewBox="0 0 62.000000 59.000000"
 preserveAspectRatio="xMidYMid meet">
<g transform="translate(0.000000,59.000000) scale(0.100000,-0.100000)"
 stroke="none">
<path d="M220 586 c0 -1 11 -52 24 -113 13 -62 22 -113 19 -113 -3 0 -49 22
-102 50 -54 28 -102 50 -107 50 -5 0 -14 -19 -20 -42 -6 -24 -17 -57 -25 -75
-7 -18 -11 -34 -9 -37 3 -2 43 -9 90 -15 47 -7 98 -14 114 -17 l28 -6 -81 -82
c-44 -45 -81 -86 -81 -91 0 -6 16 -19 34 -29 19 -10 45 -29 57 -42 12 -13 28
-24 35 -24 6 0 33 45 59 100 27 55 51 100 55 100 3 0 26 -43 50 -96 24 -53 49
-98 57 -101 7 -3 29 9 49 27 20 17 47 36 60 42 13 6 24 16 24 22 0 6 -37 47
-81 92 l-81 82 28 6 c16 3 67 10 114 17 47 6 87 13 90 15 2 3 -2 19 -9 37 -7
18 -18 51 -24 75 -6 23 -15 42 -21 42 -6 0 -53 -23 -105 -50 -52 -28 -96 -48
-99 -46 -2 3 3 45 12 93 25 139 30 130 -69 130 -47 0 -85 0 -85 -1z"/>
</g>
</svg>
