<svg version="1.0" xmlns="http://www.w3.org/2000/svg"
 width="63.000000pt" height="55.000000pt" viewBox="0 0 63.000000 55.000000"
 preserveAspectRatio="xMidYMid meet">
<g transform="translate(0.000000,55.000000) scale(0.100000,-0.100000)"
 stroke="none">
<path d="M142 511 l-143 -35 3 -45 3 -45 155 -39 156 -38 154 38 155 39 3 45
3 44 -153 38 c-84 21 -162 37 -173 36 -11 -1 -84 -18 -163 -38z"/>
<path d="M0 276 l0 -44 158 -39 157 -39 158 39 157 39 0 45 c0 42 -2 45 -22
39 -78 -22 -276 -68 -293 -68 -11 0 -84 16 -162 36 -78 20 -145 36 -148 36 -3
0 -5 -20 -5 -44z"/>
<path d="M2 122 l3 -45 130 -34 c188 -48 174 -48 340 -5 l150 39 3 41 c2 28
-1 42 -9 42 -6 0 -78 -16 -158 -35 l-147 -36 -157 39 -158 39 3 -45z"/>
</g>
</svg>
