
<svg version="1.0" xmlns="http://www.w3.org/2000/svg"
 width="45.000000pt" height="65.000000pt" viewBox="0 0 45.000000 65.000000"
 preserveAspectRatio="xMidYMid meet">
<g transform="translate(0.000000,65.000000) scale(0.100000,-0.100000)"
 stroke="none">
<path d="M110 628 c-67 -34 -110 -103 -110 -177 0 -63 21 -110 77 -176 20 -24
41 -63 50 -97 l16 -58 87 0 88 0 11 47 c7 26 36 81 67 124 l54 77 0 80 c0 72
-3 83 -31 121 -42 58 -94 81 -189 81 -59 0 -86 -5 -120 -22z m218 -78 c37 -23
52 -54 52 -108 0 -28 -13 -56 -54 -117 -30 -45 -58 -93 -61 -108 -6 -22 -13
-27 -36 -27 -22 0 -29 5 -29 18 0 11 -27 59 -60 108 -46 68 -60 98 -60 126 0
89 46 128 150 128 47 0 74 -5 98 -20z"/>
<path d="M130 60 c0 -49 17 -60 100 -60 83 0 100 11 100 60 l0 40 -100 0 -100
0 0 -40z"/>
</g>
</svg>
