<svg xmlns="http://www.w3.org/2000/svg"><symbol id="icon-book" viewBox="0 0 63.000000 55.000000" preserveAspectRatio="xMidYMid meet">
<g transform="translate(0.000000,55.000000) scale(0.100000,-0.100000)" stroke="none">
<path d="M142 511 l-143 -35 3 -45 3 -45 155 -39 156 -38 154 38 155 39 3 45
3 44 -153 38 c-84 21 -162 37 -173 36 -11 -1 -84 -18 -163 -38z"/>
<path d="M0 276 l0 -44 158 -39 157 -39 158 39 157 39 0 45 c0 42 -2 45 -22
39 -78 -22 -276 -68 -293 -68 -11 0 -84 16 -162 36 -78 20 -145 36 -148 36 -3
0 -5 -20 -5 -44z"/>
<path d="M2 122 l3 -45 130 -34 c188 -48 174 -48 340 -5 l150 39 3 41 c2 28
-1 42 -9 42 -6 0 -78 -16 -158 -35 l-147 -36 -157 39 -158 39 3 -45z"/>
</g>
</symbol><symbol id="icon-lamp" viewBox="0 0 45.000000 65.000000" preserveAspectRatio="xMidYMid meet">
<g transform="translate(0.000000,65.000000) scale(0.100000,-0.100000)" stroke="none">
<path d="M110 628 c-67 -34 -110 -103 -110 -177 0 -63 21 -110 77 -176 20 -24
41 -63 50 -97 l16 -58 87 0 88 0 11 47 c7 26 36 81 67 124 l54 77 0 80 c0 72
-3 83 -31 121 -42 58 -94 81 -189 81 -59 0 -86 -5 -120 -22z m218 -78 c37 -23
52 -54 52 -108 0 -28 -13 -56 -54 -117 -30 -45 -58 -93 -61 -108 -6 -22 -13
-27 -36 -27 -22 0 -29 5 -29 18 0 11 -27 59 -60 108 -46 68 -60 98 -60 126 0
89 46 128 150 128 47 0 74 -5 98 -20z"/>
<path d="M130 60 c0 -49 17 -60 100 -60 83 0 100 11 100 60 l0 40 -100 0 -100
0 0 -40z"/>
</g>
</symbol><symbol id="icon-star" viewBox="0 0 62.000000 59.000000" preserveAspectRatio="xMidYMid meet">
<g transform="translate(0.000000,59.000000) scale(0.100000,-0.100000)" stroke="none">
<path d="M220 586 c0 -1 11 -52 24 -113 13 -62 22 -113 19 -113 -3 0 -49 22
-102 50 -54 28 -102 50 -107 50 -5 0 -14 -19 -20 -42 -6 -24 -17 -57 -25 -75
-7 -18 -11 -34 -9 -37 3 -2 43 -9 90 -15 47 -7 98 -14 114 -17 l28 -6 -81 -82
c-44 -45 -81 -86 -81 -91 0 -6 16 -19 34 -29 19 -10 45 -29 57 -42 12 -13 28
-24 35 -24 6 0 33 45 59 100 27 55 51 100 55 100 3 0 26 -43 50 -96 24 -53 49
-98 57 -101 7 -3 29 9 49 27 20 17 47 36 60 42 13 6 24 16 24 22 0 6 -37 47
-81 92 l-81 82 28 6 c16 3 67 10 114 17 47 6 87 13 90 15 2 3 -2 19 -9 37 -7
18 -18 51 -24 75 -6 23 -15 42 -21 42 -6 0 -53 -23 -105 -50 -52 -28 -96 -48
-99 -46 -2 3 3 45 12 93 25 139 30 130 -69 130 -47 0 -85 0 -85 -1z"/>
</g>
</symbol></svg>